<svg width="19" height="30" viewBox="0 0 19 30" fill="none" xmlns="http://www.w3.org/2000/svg">
<path d="M9.38086 0C4.19887 0 0 4.18199 0 9.3621C0 18.3189 9.38086 30 9.38086 30C9.38086 30 18.7617 18.3171 18.7617 9.3621C18.7617 4.18386 14.5629 0 9.38086 0ZM9.38086 14.5422C8.03736 14.5422 6.74889 14.0085 5.7989 13.0585C4.8489 12.1085 4.3152 10.82 4.3152 9.47655C4.3152 8.13305 4.8489 6.84458 5.7989 5.89458C6.74889 4.94458 8.03736 4.41088 9.38086 4.41088C10.7244 4.41088 12.0128 4.94458 12.9628 5.89458C13.9128 6.84458 14.4465 8.13305 14.4465 9.47655C14.4465 10.82 13.9128 12.1085 12.9628 13.0585C12.0128 14.0085 10.7244 14.5422 9.38086 14.5422Z" fill="black"/>
</svg>
