<svg width="25" height="24" viewBox="0 0 25 24" fill="none" xmlns="http://www.w3.org/2000/svg">
<path d="M10.1871 14.0152C11.6894 15.5391 13.507 16.7157 15.5125 17.4623L18.2255 15.3034C18.306 15.248 18.4013 15.2183 18.499 15.2183C18.5967 15.2183 18.692 15.248 18.7725 15.3034L23.81 18.5489C24.0012 18.6639 24.1631 18.8218 24.2829 19.0101C24.4026 19.1984 24.4769 19.4119 24.5 19.6339C24.523 19.8559 24.4941 20.0801 24.4156 20.289C24.337 20.4979 24.211 20.6856 24.0475 20.8374L21.687 23.1691C21.349 23.5031 20.9335 23.7482 20.4777 23.8825C20.0219 24.0169 19.5399 24.0363 19.0747 23.9391C14.4346 22.9807 10.1577 20.7363 6.73283 17.4623C3.38396 14.1557 1.06655 9.94838 0.0617351 5.35069C-0.0375281 4.89273 -0.0168105 4.4169 0.12188 3.96931C0.260571 3.52172 0.512531 3.11754 0.853343 2.79595L3.30013 0.43552C3.45154 0.279924 3.63619 0.160598 3.84026 0.0864768C4.04432 0.0123557 4.26251 -0.01464 4.47848 0.00751122C4.69446 0.0296625 4.90262 0.100387 5.08739 0.214388C5.27216 0.328389 5.42874 0.482714 5.54542 0.665806L8.89896 5.63854C8.9568 5.71663 8.98802 5.81123 8.98802 5.90841C8.98802 6.00559 8.9568 6.10019 8.89896 6.17828L6.68965 8.83376C7.45649 10.7991 8.65121 12.569 10.1871 14.0152Z" fill="black"/>
</svg>
